<svg width="215" height="56" viewBox="0 0 215 56" fill="none" xmlns="http://www.w3.org/2000/svg">
<path d="M96.5205 13V23.1244H95.9285C95.4832 20.482 94.6534 18.4571 93.4391 17.0498C92.2248 15.6424 90.8485 14.9387 89.3103 14.9387C88.0252 14.9387 86.8462 15.4628 85.7736 16.5112C84.7009 17.5595 83.9166 18.931 83.4208 20.6256C82.7833 22.7941 82.4645 25.2067 82.4645 27.8634C82.4645 30.4771 82.6973 32.861 83.1627 35.0151C83.6282 37.1549 84.3568 38.7777 85.3486 39.8835C86.3403 40.9749 87.6255 41.5206 89.2041 41.5206C90.4994 41.5206 91.6834 41.1185 92.756 40.3143C93.8388 39.5101 94.9773 38.1242 96.1714 36.1568V38.6772C95.0177 40.3861 93.8135 41.6283 92.5587 42.4038C91.314 43.1649 89.8568 43.5455 88.1871 43.5455C85.9912 43.5455 84.0381 42.9208 82.3279 41.6714C80.6278 40.422 79.3123 38.6269 78.3813 36.286C77.4604 33.9453 77 31.4536 77 28.8112C77 26.0252 77.511 23.3829 78.5331 20.8841C79.5653 18.3853 80.9517 16.4466 82.6922 15.068C84.4429 13.6893 86.2998 13 88.263 13C89.7101 13 91.2381 13.4452 92.8471 14.3355C93.7781 14.8525 94.3701 15.111 94.6231 15.111C94.9469 15.111 95.2252 14.9459 95.4579 14.6156C95.7008 14.2709 95.8576 13.7324 95.9285 13H96.5205ZM105.977 22.1335C107.212 22.1335 108.36 22.5859 109.423 23.4906C110.485 24.3953 111.29 25.6806 111.836 27.3464C112.393 29.0123 112.671 30.8361 112.671 32.8179C112.671 35.6757 112.16 38.0668 111.138 39.9912C109.903 42.3176 108.198 43.4808 106.023 43.4808C103.887 43.4808 102.243 42.4181 101.089 40.2927C99.9358 38.1673 99.359 35.7044 99.359 32.9041C99.359 30.0176 99.9459 27.5044 101.12 25.3646C102.304 23.2105 103.923 22.1335 105.977 22.1335ZM106.038 23.6629C105.522 23.6629 105.077 23.9429 104.702 24.503C104.338 25.0487 104.095 26.1401 103.974 27.7773C103.862 29.4001 103.806 31.6619 103.806 34.5627C103.806 36.0994 103.877 37.5355 104.019 38.871C104.13 39.8906 104.368 40.6661 104.733 41.1975C105.097 41.7288 105.512 41.9945 105.977 41.9945C106.433 41.9945 106.812 41.815 107.116 41.4559C107.51 40.9677 107.773 40.2856 107.905 39.4095C108.107 38.0453 108.209 35.288 108.209 31.1377C108.209 28.6964 108.112 27.0233 107.92 26.1186C107.728 25.1995 107.444 24.5317 107.07 24.1153C106.807 23.8137 106.463 23.6629 106.038 23.6629ZM128.534 22.7366V38.5048C128.534 40.0414 128.635 41.0036 128.837 41.3913C129.039 41.7647 129.449 42.0017 130.067 42.1022V42.8777H124.283V40.185C123.605 41.3339 122.927 42.174 122.249 42.7054C121.571 43.2223 120.812 43.4808 119.972 43.4808C119.173 43.4808 118.459 43.1362 117.832 42.4469C117.215 41.7432 116.8 40.9246 116.587 39.9912C116.375 39.0577 116.268 37.4277 116.268 35.1013V27.1095C116.268 25.5873 116.167 24.6394 115.965 24.2661C115.773 23.8927 115.363 23.6485 114.736 23.5336V22.7366H120.519V36.5015C120.519 37.9376 120.564 38.8638 120.655 39.2803C120.757 39.6968 120.909 40.0127 121.111 40.2281C121.323 40.4435 121.566 40.5512 121.84 40.5512C122.204 40.5512 122.533 40.4148 122.826 40.142C123.231 39.7686 123.716 39.0146 124.283 37.8801V27.1095C124.283 25.5873 124.182 24.6394 123.98 24.2661C123.787 23.8927 123.378 23.6485 122.75 23.5336V22.7366H128.534ZM137.763 15.3695V22.7366H141.132V24.8692H137.763V37.2985C137.763 38.4617 137.798 39.2157 137.869 39.5603C137.95 39.8906 138.086 40.1635 138.278 40.3789C138.471 40.58 138.648 40.6805 138.81 40.6805C139.468 40.6805 140.09 39.9696 140.677 38.5479L141.132 39.0218C140.312 41.7791 138.982 43.1577 137.14 43.1577C136.239 43.1577 135.475 42.8059 134.848 42.1022C134.231 41.3842 133.836 40.5871 133.664 39.7111C133.563 39.2229 133.512 37.9017 133.512 35.7475V24.8692H131.66V24.1153C132.935 22.8371 134.018 21.4944 134.909 20.087C135.809 18.6797 136.594 17.1072 137.262 15.3695H137.763ZM156.19 22.7366V38.5048C156.19 40.0414 156.291 41.0036 156.494 41.3913C156.696 41.7647 157.106 42.0017 157.723 42.1022V42.8777H151.94V40.185C151.262 41.3339 150.584 42.174 149.906 42.7054C149.228 43.2223 148.469 43.4808 147.629 43.4808C146.83 43.4808 146.116 43.1362 145.489 42.4469C144.871 41.7432 144.456 40.9246 144.244 39.9912C144.031 39.0577 143.925 37.4277 143.925 35.1013V27.1095C143.925 25.5873 143.824 24.6394 143.622 24.2661C143.43 23.8927 143.02 23.6485 142.392 23.5336V22.7366H148.175V36.5015C148.175 37.9376 148.221 38.8638 148.312 39.2803C148.413 39.6968 148.565 40.0127 148.767 40.2281C148.98 40.4435 149.223 40.5512 149.496 40.5512C149.86 40.5512 150.189 40.4148 150.483 40.142C150.887 39.7686 151.373 39.0146 151.94 37.8801V27.1095C151.94 25.5873 151.839 24.6394 151.636 24.2661C151.444 23.8927 151.034 23.6485 150.407 23.5336V22.7366H156.19ZM165.677 22.7366V27.3034C166.618 25.221 167.443 23.8424 168.151 23.1675C168.86 22.4781 169.543 22.1335 170.2 22.1335C170.767 22.1335 171.217 22.3848 171.551 22.8874C171.896 23.3757 172.067 24.0722 172.067 24.9769C172.067 25.9391 171.9 26.6858 171.567 27.2172C171.243 27.7485 170.848 28.0142 170.383 28.0142C169.846 28.0142 169.381 27.7701 168.986 27.2818C168.592 26.7936 168.359 26.5207 168.288 26.4632C168.187 26.3771 168.07 26.334 167.939 26.334C167.645 26.334 167.367 26.492 167.104 26.8079C166.689 27.2962 166.375 27.9927 166.163 28.8974C165.839 30.2904 165.677 31.827 165.677 33.5073V38.1386L165.692 39.3449C165.692 40.1635 165.728 40.6877 165.799 40.9174C165.92 41.3052 166.097 41.5924 166.33 41.7791C166.573 41.9514 166.977 42.0591 167.544 42.1022V42.8777H159.878V42.1022C160.496 42.0304 160.911 41.7934 161.123 41.3913C161.346 40.9749 161.457 39.8906 161.457 38.1386V27.0018C161.457 25.8529 161.417 25.1205 161.336 24.8046C161.235 24.4025 161.088 24.1081 160.896 23.9214C160.703 23.7347 160.364 23.6055 159.878 23.5336V22.7366H165.677ZM185.046 32.0855H177.259C177.35 34.7566 177.851 36.8677 178.762 38.4187C179.46 39.6106 180.3 40.2066 181.281 40.2066C181.888 40.2066 182.44 39.9696 182.936 39.4957C183.432 39.0074 183.963 38.1386 184.53 36.8892L185.046 37.3631C184.277 39.5891 183.427 41.1687 182.496 42.1022C181.565 43.0213 180.487 43.4808 179.263 43.4808C177.158 43.4808 175.564 42.332 174.481 40.0342C173.611 38.1817 173.176 35.8839 173.176 33.141C173.176 29.7806 173.813 27.1095 175.088 25.1277C176.373 23.1315 177.876 22.1335 179.596 22.1335C181.033 22.1335 182.278 22.9736 183.33 24.6538C184.393 26.3197 184.965 28.7969 185.046 32.0855ZM181.312 30.6423C181.312 28.3302 181.221 26.7433 181.038 25.8816C180.866 25.02 180.593 24.3666 180.219 23.9214C180.006 23.6629 179.723 23.5336 179.369 23.5336C178.843 23.5336 178.412 23.8998 178.079 24.6323C177.481 25.9104 177.183 27.6624 177.183 29.8883V30.6423H181.312Z" fill="#A17911" fill-opacity="0.9"/>
<path d="M33.7344 17.8125V25.8594C34.9635 24.5885 36.3073 23.9531 37.7656 23.9531C38.7656 23.9531 39.7083 24.25 40.5938 24.8438C41.4792 25.4271 42.1719 26.2604 42.6719 27.3438C43.1719 28.4271 43.4219 29.6771 43.4219 31.0938C43.4219 32.6875 43.1042 34.1354 42.4688 35.4375C41.8333 36.7396 40.9844 37.7344 39.9219 38.4219C38.8594 39.099 37.6458 39.4375 36.2812 39.4375C35.4896 39.4375 34.7865 39.3125 34.1719 39.0625C33.5573 38.8125 32.9531 38.4062 32.3594 37.8438L29.9375 39.4219H29.4062V20.8438C29.4062 20 29.3698 19.4792 29.2969 19.2812C29.1927 18.9896 29.026 18.776 28.7969 18.6406C28.5781 18.4948 28.2031 18.4115 27.6719 18.3906V17.8125H33.7344ZM33.7344 27.25V33.75C33.7344 35.0729 33.7656 35.9167 33.8281 36.2812C33.9323 36.8958 34.1823 37.3958 34.5781 37.7812C34.974 38.1562 35.4792 38.3438 36.0938 38.3438C36.625 38.3438 37.0781 38.1927 37.4531 37.8906C37.8385 37.5885 38.1562 36.9896 38.4062 36.0938C38.6667 35.1979 38.7969 33.5833 38.7969 31.25C38.7969 29.0104 38.5156 27.474 37.9531 26.6406C37.5469 26.0365 37 25.7344 36.3125 25.7344C35.4167 25.7344 34.5573 26.2396 33.7344 27.25ZM58.2656 31.1719H50.25C50.3438 33.1094 50.8594 34.6406 51.7969 35.7656C52.5156 36.6302 53.3802 37.0625 54.3906 37.0625C55.0156 37.0625 55.5833 36.8906 56.0938 36.5469C56.6042 36.1927 57.151 35.5625 57.7344 34.6562L58.2656 35C57.474 36.6146 56.599 37.7604 55.6406 38.4375C54.6823 39.1042 53.5729 39.4375 52.3125 39.4375C50.1458 39.4375 48.5052 38.6042 47.3906 36.9375C46.4948 35.5938 46.0469 33.9271 46.0469 31.9375C46.0469 29.5 46.7031 27.5625 48.0156 26.125C49.3385 24.6771 50.8854 23.9531 52.6562 23.9531C54.1354 23.9531 55.4167 24.5625 56.5 25.7812C57.5938 26.9896 58.1823 28.7865 58.2656 31.1719ZM54.4219 30.125C54.4219 28.4479 54.3281 27.2969 54.1406 26.6719C53.9635 26.0469 53.6823 25.5729 53.2969 25.25C53.0781 25.0625 52.7865 24.9688 52.4219 24.9688C51.8802 24.9688 51.4375 25.2344 51.0938 25.7656C50.4792 26.6927 50.1719 27.9635 50.1719 29.5781V30.125H54.4219ZM66.7031 39.4375L61.7812 28.1094C61.1875 26.7448 60.724 25.8802 60.3906 25.5156C60.151 25.2448 59.7969 25.0625 59.3281 24.9688V24.3906H67.0938V24.9688C66.6042 24.9688 66.2708 25.0573 66.0938 25.2344C65.8438 25.4635 65.7188 25.7344 65.7188 26.0469C65.7188 26.4323 65.9479 27.1562 66.4062 28.2188L68.8125 33.7031L70.7344 28.9688C71.2865 27.6146 71.5625 26.6562 71.5625 26.0938C71.5625 25.7708 71.4427 25.5104 71.2031 25.3125C70.974 25.1042 70.5625 24.9896 69.9688 24.9688V24.3906H74.75V24.9688C74.2917 25.0312 73.9167 25.2031 73.625 25.4844C73.3333 25.7656 72.8958 26.5938 72.3125 27.9688L67.4375 39.4375H66.7031Z" fill="#F23C82"/>
</svg>
